# xmcd
# 
# Track frame offsets:
#     150
#     16543
#     29786
#     42359
#     55684
#     68705
#     79359
#     98667
#     117537
#     132945
# 
# Disc length: 2001
# 
# Revision: 3
# Processed by: cddbd v1.5.2PL0 Copyright (c) Steve Scherf et al.
# Submitted via: fre:ac v1.0.31
# 
DISCID=8107cf0a
DTITLE=Hank Williams III - Long Gone Daddy
DYEAR=2012
DGENRE=Rock/Pop
TTITLE0=I'm a Long Gone Daddy
TTITLE1=Sun Comes Up
TTITLE2=The Bottle Let Me Down
TTITLE3=Wreck of the Old '97
TTITLE4='Neath a Cold Gray Tomb of Stone
TTITLE5=The Wind Blew Cold
TTITLE6=Good Hearted Woman
TTITLE7=This Ain't Montgomery
TTITLE8=What They Want Me to Be
TTITLE9=If the Shoe Fits [Shuffle Mix]
EXTD=
EXTT0=
EXTT1=
EXTT2=
EXTT3=
EXTT4=
EXTT5=
EXTT6=
EXTT7=
EXTT8=
EXTT9=
PLAYORDER=
